# xmcd CD database file
#
# Track frame offsets:
#	150
#	31371
#	69624
#	101587
#	129043
#	161212
#	183318
#	204066
#
# Disc length: 3146 seconds
#
# Revision: 0
# Processed by: cddbd v1.5.1PL0 Copyright (c) Steve Scherf et al.
# Submitted via: CDex 1.51
#
DISCID=620c4808
DTITLE=Brad Mehldau - Cut your veins CD1
DYEAR=1998
DGENRE=Jazz
TTITLE0=It's alright with me
TTITLE1=Bewitched, bothered and bewildered
TTITLE2=Old devil moon
TTITLE3=All the things you are
TTITLE4=Exit music (for a film)
TTITLE5=Countdown
TTITLE6=Think of one
TTITLE7=For all we know
EXTD=YEAR: 1998
EXTT0=
EXTT1=
EXTT2=
EXTT3=
EXTT4=
EXTT5=
EXTT6=
EXTT7=
PLAYORDER=
